<svg width="20" height="20" viewBox="0 0 20 20" fill="none" xmlns="http://www.w3.org/2000/svg">
<path d="M17.5 16.6667C17.5 16.8877 17.4122 17.0996 17.2559 17.2559C17.0996 17.4122 16.8877 17.5 16.6667 17.5H3.33333C3.11232 17.5 2.90036 17.4122 2.74408 17.2559C2.5878 17.0996 2.5 16.8877 2.5 16.6667V7.76166C2.49995 7.63578 2.52842 7.51153 2.58326 7.39823C2.63811 7.28493 2.71791 7.18553 2.81667 7.10749L9.48333 1.84832C9.63046 1.73206 9.81249 1.66882 10 1.66882C10.1875 1.66882 10.3695 1.73206 10.5167 1.84832L17.1833 7.10665C17.2822 7.18478 17.3621 7.28432 17.4169 7.39777C17.4718 7.51123 17.5002 7.63564 17.5 7.76166V16.6667V16.6667ZM5.83333 9.99999C5.83333 11.1051 6.27232 12.1649 7.05372 12.9463C7.83512 13.7277 8.89493 14.1667 10 14.1667C11.1051 14.1667 12.1649 13.7277 12.9463 12.9463C13.7277 12.1649 14.1667 11.1051 14.1667 9.99999H12.5C12.5 10.663 12.2366 11.2989 11.7678 11.7678C11.2989 12.2366 10.663 12.5 10 12.5C9.33696 12.5 8.70107 12.2366 8.23223 11.7678C7.76339 11.2989 7.5 10.663 7.5 9.99999H5.83333Z" fill="#0F1324" fill-opacity="0.6"/>
</svg>
