<svg width="20" height="20" viewBox="0 0 20 20" fill="none" xmlns="http://www.w3.org/2000/svg">
<path d="M17.5 16.6667H19.1667V18.3334H0.833332V16.6667H2.5V2.50002C2.5 2.27901 2.5878 2.06704 2.74408 1.91076C2.90036 1.75448 3.11232 1.66669 3.33333 1.66669H16.6667C16.8877 1.66669 17.0996 1.75448 17.2559 1.91076C17.4122 2.06704 17.5 2.27901 17.5 2.50002V16.6667ZM6.66666 9.16669V10.8334H9.16666V9.16669H6.66666ZM6.66666 5.83335V7.50002H9.16666V5.83335H6.66666ZM6.66666 12.5V14.1667H9.16666V12.5H6.66666ZM10.8333 12.5V14.1667H13.3333V12.5H10.8333ZM10.8333 9.16669V10.8334H13.3333V9.16669H10.8333ZM10.8333 5.83335V7.50002H13.3333V5.83335H10.8333Z" fill="#0F1324" fill-opacity="0.6"/>
</svg>
