<svg width="20" height="20" viewBox="0 0 20 20" fill="none" xmlns="http://www.w3.org/2000/svg">
<path d="M13.3333 3.33331C13.5543 3.33331 13.7663 3.42111 13.9226 3.57739C14.0789 3.73367 14.1667 3.94563 14.1667 4.16665V7.66665L18.5108 4.62498C18.5733 4.58119 18.6466 4.55539 18.7227 4.5504C18.7988 4.5454 18.8749 4.5614 18.9425 4.59664C19.0102 4.63189 19.0668 4.68503 19.1064 4.75027C19.1459 4.81552 19.1668 4.89036 19.1667 4.96665V15.0333C19.1668 15.1096 19.1459 15.1844 19.1064 15.2497C19.0668 15.3149 19.0102 15.3681 18.9425 15.4033C18.8749 15.4386 18.7988 15.4546 18.7227 15.4496C18.6466 15.4446 18.5733 15.4188 18.5108 15.375L14.1667 12.3333V15.8333C14.1667 16.0543 14.0789 16.2663 13.9226 16.4226C13.7663 16.5788 13.5543 16.6666 13.3333 16.6666H1.66667C1.44565 16.6666 1.23369 16.5788 1.07741 16.4226C0.921129 16.2663 0.833332 16.0543 0.833332 15.8333V4.16665C0.833332 3.94563 0.921129 3.73367 1.07741 3.57739C1.23369 3.42111 1.44565 3.33331 1.66667 3.33331H13.3333ZM6.16666 7.35748C6.08982 7.35746 6.01533 7.384 5.9558 7.43259C5.89628 7.48119 5.85537 7.54886 5.84 7.62415L5.83333 7.68998V12.3083C5.83332 12.3623 5.84643 12.4155 5.87151 12.4633C5.8966 12.5111 5.93292 12.5521 5.97735 12.5827C6.02178 12.6134 6.07299 12.6328 6.12658 12.6393C6.18017 12.6458 6.23453 12.6391 6.285 12.62L6.34583 12.59L9.975 10.28C10.0173 10.2529 10.053 10.2166 10.0793 10.1737C10.1057 10.1309 10.122 10.0827 10.127 10.0327C10.1321 9.98266 10.1257 9.93215 10.1085 9.88493C10.0913 9.8377 10.0636 9.79499 10.0275 9.75998L9.975 9.71831L6.34583 7.40831C6.29206 7.37498 6.22992 7.35764 6.16666 7.35831V7.35748Z" fill="#0F1324" fill-opacity="0.6"/>
</svg>
