<svg width="20" height="20" viewBox="0 0 20 20" fill="none" xmlns="http://www.w3.org/2000/svg">
<g clip-path="url(#clip0_2003_4644)">
<path d="M7.23824 3.33366L9.41074 1.16116C9.56701 1.00494 9.77893 0.917175 9.9999 0.917175C10.2209 0.917175 10.4328 1.00494 10.5891 1.16116L12.7616 3.33366H15.8332C16.0542 3.33366 16.2662 3.42146 16.4225 3.57774C16.5788 3.73402 16.6666 3.94598 16.6666 4.167V7.23866L18.8391 9.41117C18.9953 9.56744 19.0831 9.77936 19.0831 10.0003C19.0831 10.2213 18.9953 10.4332 18.8391 10.5895L16.6666 12.762V15.8337C16.6666 16.0547 16.5788 16.2666 16.4225 16.4229C16.2662 16.5792 16.0542 16.667 15.8332 16.667H12.7616L10.5891 18.8395C10.4328 18.9957 10.2209 19.0835 9.9999 19.0835C9.77893 19.0835 9.56701 18.9957 9.41074 18.8395L7.23824 16.667H4.16657C3.94556 16.667 3.73359 16.5792 3.57731 16.4229C3.42103 16.2666 3.33324 16.0547 3.33324 15.8337V12.762L1.16074 10.5895C1.00451 10.4332 0.916748 10.2213 0.916748 10.0003C0.916748 9.77936 1.00451 9.56744 1.16074 9.41117L3.33324 7.23866V4.167C3.33324 3.94598 3.42103 3.73402 3.57731 3.57774C3.73359 3.42146 3.94556 3.33366 4.16657 3.33366H7.23824ZM9.9999 12.5003C10.6629 12.5003 11.2988 12.2369 11.7677 11.7681C12.2365 11.2993 12.4999 10.6634 12.4999 10.0003C12.4999 9.33729 12.2365 8.7014 11.7677 8.23256C11.2988 7.76372 10.6629 7.50033 9.9999 7.50033C9.33686 7.50033 8.70098 7.76372 8.23214 8.23256C7.76329 8.7014 7.4999 9.33729 7.4999 10.0003C7.4999 10.6634 7.76329 11.2993 8.23214 11.7681C8.70098 12.2369 9.33686 12.5003 9.9999 12.5003V12.5003Z" fill="#0F1324" fill-opacity="0.6"/>
</g>
<defs>
<clipPath id="clip0_2003_4644">
<rect width="20" height="20" fill="white"/>
</clipPath>
</defs>
</svg>
