<svg width="20" height="20" viewBox="0 0 20 20" fill="none" xmlns="http://www.w3.org/2000/svg">
<path d="M16.6667 18.3333H3.33333V16.6666C3.33333 15.5616 3.77232 14.5018 4.55372 13.7204C5.33512 12.939 6.39493 12.5 7.5 12.5H12.5C13.6051 12.5 14.6649 12.939 15.4463 13.7204C16.2277 14.5018 16.6667 15.5616 16.6667 16.6666V18.3333ZM10 10.8333C9.34339 10.8333 8.69321 10.704 8.08658 10.4527C7.47995 10.2014 6.92876 9.83314 6.46446 9.36885C6.00017 8.90455 5.63187 8.35336 5.3806 7.74673C5.12933 7.1401 5 6.48992 5 5.83331C5 5.1767 5.12933 4.52652 5.3806 3.9199C5.63187 3.31327 6.00017 2.76207 6.46446 2.29778C6.92876 1.83349 7.47995 1.46519 8.08658 1.21392C8.69321 0.962642 9.34339 0.833313 10 0.833313C11.3261 0.833313 12.5979 1.3601 13.5355 2.29778C14.4732 3.23546 15 4.50723 15 5.83331C15 7.1594 14.4732 8.43116 13.5355 9.36885C12.5979 10.3065 11.3261 10.8333 10 10.8333V10.8333Z" fill="#0F1324" fill-opacity="0.6"/>
</svg>
