<svg width="20" height="20" viewBox="0 0 20 20" fill="none" xmlns="http://www.w3.org/2000/svg">
<path d="M1.66667 18.3333C1.66667 16.5652 2.36905 14.8695 3.61929 13.6193C4.86953 12.369 6.56522 11.6666 8.33333 11.6666C10.1014 11.6666 11.7971 12.369 13.0474 13.6193C14.2976 14.8695 15 16.5652 15 18.3333H1.66667ZM8.33333 10.8333C5.57083 10.8333 3.33333 8.59581 3.33333 5.83331C3.33333 3.07081 5.57083 0.833313 8.33333 0.833313C11.0958 0.833313 13.3333 3.07081 13.3333 5.83331C13.3333 8.59581 11.0958 10.8333 8.33333 10.8333ZM14.4692 12.6941C15.7439 13.0218 16.8827 13.7432 17.7236 14.7557C18.5645 15.7682 19.0645 17.0201 19.1525 18.3333H16.6667C16.6667 16.1583 15.8333 14.1783 14.4692 12.6941ZM12.7833 10.7975C13.4817 10.1729 14.0401 9.40776 14.4221 8.55227C14.8041 7.69678 15.0011 6.77022 15 5.83331C15.0018 4.69453 14.7105 3.57446 14.1542 2.58081C15.098 2.77047 15.9471 3.28112 16.557 4.02598C17.167 4.77083 17.5002 5.70392 17.5 6.66665C17.5002 7.26037 17.3735 7.84728 17.1284 8.38804C16.8833 8.92881 16.5254 9.41093 16.0788 9.8021C15.6322 10.1933 15.1071 10.4844 14.5387 10.6561C13.9703 10.8278 13.3718 10.876 12.7833 10.7975V10.7975Z" fill="#0F1324" fill-opacity="0.6"/>
</svg>
